<svg width="400" height="400" viewBox="0 0 400 400" fill="none" xmlns="http://www.w3.org/2000/svg">
<rect width="400" height="400" fill="white"/>
<path d="M248 384H109C107.895 384 107 383.105 107 382V205C107 203.895 107.895 203 109 203H248" stroke="black" stroke-width="10" stroke-linejoin="round"/>
<path d="M107 203.794L133.906 174.643C134.285 174.233 134.817 174 135.376 174H275M275 174H274.876C274.317 174 273.785 174.233 273.406 174.643L247.03 203.219C246.689 203.589 246.5 204.073 246.5 204.576V382.025C246.5 383.969 248.993 384.77 250.125 383.191L274.625 349.023C274.869 348.683 275 348.275 275 347.857V174Z" stroke="black" stroke-width="10" stroke-linejoin="round"/>
<path d="M176.564 177.28V184V147.563C176.564 147.056 176.371 146.567 176.024 146.197L162.36 131.591C161.134 130.281 162.12 128.144 163.912 128.227L192.873 129.564L222.589 128.241C224.445 128.158 225.401 130.431 224.044 131.7L208.561 146.181C208.157 146.559 207.927 147.088 207.927 147.641V184V177.28" stroke="black" stroke-width="10" stroke-linejoin="round"/>
<path d="M184.026 255.595H199.05V265.371C199.05 269.519 195.687 272.882 191.538 272.882C187.389 272.882 184.026 269.519 184.026 265.371V255.595Z" fill="#5177FF"/>
<path d="M184.026 245.819C184.026 241.67 187.389 238.307 191.538 238.307C195.687 238.307 199.05 241.67 199.05 245.819V255.595H184.026V245.819Z" fill="#5177FF"/>
<path d="M205.059 247.567H220.082V257.343C220.082 261.491 216.719 264.855 212.571 264.855C208.422 264.855 205.059 261.491 205.059 257.343V247.567Z" fill="#FFA800"/>
<path d="M205.059 237.791C205.059 233.642 208.422 230.279 212.571 230.279C216.719 230.279 220.082 233.642 220.082 237.791V247.567H205.059V237.791Z" fill="#FFA800"/>
<path d="M147 176.647L149 174.459L122.524 203.427C122.187 203.796 122 204.277 122 204.776L122 384V383.444M179.206 131.667L177.587 130L189.435 142.201C189.797 142.575 190 143.074 190 143.595V183.472V178.459" stroke="#5177FF" stroke-width="10" stroke-linejoin="round"/>
<path d="M242.673 131.439L244 130L222 152.051V184V180.625" stroke="#FFA800" stroke-width="10" stroke-linejoin="round"/>
<path d="M164.472 361.364V373H162.011V361.364H164.472ZM172.642 373.165C172.085 373.165 171.589 373.068 171.153 372.875C170.718 372.678 170.373 372.388 170.119 372.006C169.869 371.619 169.744 371.138 169.744 370.562C169.744 370.078 169.833 369.67 170.011 369.341C170.189 369.011 170.432 368.746 170.739 368.545C171.045 368.345 171.394 368.193 171.784 368.091C172.178 367.989 172.591 367.917 173.023 367.875C173.53 367.822 173.939 367.773 174.25 367.727C174.561 367.678 174.786 367.606 174.926 367.511C175.066 367.417 175.136 367.277 175.136 367.091V367.057C175.136 366.697 175.023 366.419 174.795 366.222C174.572 366.025 174.254 365.926 173.841 365.926C173.405 365.926 173.059 366.023 172.801 366.216C172.544 366.405 172.373 366.644 172.29 366.932L170.051 366.75C170.165 366.22 170.388 365.761 170.722 365.375C171.055 364.985 171.485 364.686 172.011 364.477C172.542 364.265 173.155 364.159 173.852 364.159C174.337 364.159 174.801 364.216 175.244 364.33C175.691 364.443 176.087 364.619 176.432 364.858C176.78 365.097 177.055 365.403 177.256 365.778C177.456 366.15 177.557 366.595 177.557 367.114V373H175.261V371.79H175.193C175.053 372.062 174.866 372.303 174.631 372.511C174.396 372.716 174.114 372.877 173.784 372.994C173.455 373.108 173.074 373.165 172.642 373.165ZM173.335 371.494C173.691 371.494 174.006 371.424 174.278 371.284C174.551 371.14 174.765 370.947 174.92 370.705C175.076 370.462 175.153 370.187 175.153 369.881V368.955C175.078 369.004 174.973 369.049 174.841 369.091C174.712 369.129 174.566 369.165 174.403 369.199C174.241 369.229 174.078 369.258 173.915 369.284C173.752 369.307 173.604 369.328 173.472 369.347C173.188 369.388 172.939 369.455 172.727 369.545C172.515 369.636 172.35 369.759 172.233 369.915C172.116 370.066 172.057 370.256 172.057 370.483C172.057 370.812 172.176 371.064 172.415 371.239C172.657 371.409 172.964 371.494 173.335 371.494ZM179.435 373V364.273H181.741V365.812H181.844C182.026 365.301 182.329 364.898 182.753 364.602C183.177 364.307 183.685 364.159 184.276 364.159C184.874 364.159 185.384 364.309 185.804 364.608C186.224 364.903 186.505 365.305 186.645 365.812H186.736C186.914 365.312 187.236 364.913 187.702 364.614C188.171 364.311 188.726 364.159 189.366 364.159C190.181 364.159 190.842 364.419 191.349 364.938C191.861 365.453 192.116 366.184 192.116 367.131V373H189.702V367.608C189.702 367.123 189.573 366.759 189.315 366.517C189.058 366.275 188.736 366.153 188.349 366.153C187.91 366.153 187.567 366.294 187.321 366.574C187.075 366.85 186.952 367.216 186.952 367.67V373H184.605V367.557C184.605 367.129 184.482 366.788 184.236 366.534C183.993 366.28 183.673 366.153 183.276 366.153C183.007 366.153 182.764 366.222 182.548 366.358C182.336 366.491 182.168 366.678 182.043 366.92C181.918 367.159 181.855 367.439 181.855 367.761V373H179.435ZM208.47 367.182C208.47 368.451 208.23 369.53 207.749 370.42C207.271 371.311 206.62 371.991 205.794 372.46C204.972 372.926 204.048 373.159 203.021 373.159C201.987 373.159 201.059 372.924 200.237 372.455C199.415 371.985 198.766 371.305 198.288 370.415C197.811 369.525 197.572 368.447 197.572 367.182C197.572 365.913 197.811 364.833 198.288 363.943C198.766 363.053 199.415 362.375 200.237 361.909C201.059 361.439 201.987 361.205 203.021 361.205C204.048 361.205 204.972 361.439 205.794 361.909C206.62 362.375 207.271 363.053 207.749 363.943C208.23 364.833 208.47 365.913 208.47 367.182ZM205.976 367.182C205.976 366.36 205.853 365.667 205.607 365.102C205.364 364.538 205.021 364.11 204.578 363.818C204.135 363.527 203.616 363.381 203.021 363.381C202.427 363.381 201.908 363.527 201.464 363.818C201.021 364.11 200.677 364.538 200.43 365.102C200.188 365.667 200.067 366.36 200.067 367.182C200.067 368.004 200.188 368.697 200.43 369.261C200.677 369.826 201.021 370.254 201.464 370.545C201.908 370.837 202.427 370.983 203.021 370.983C203.616 370.983 204.135 370.837 204.578 370.545C205.021 370.254 205.364 369.826 205.607 369.261C205.853 368.697 205.976 368.004 205.976 367.182ZM210.293 373V361.364H212.753V366.494H212.906L217.094 361.364H220.043L215.724 366.574L220.094 373H217.151L213.963 368.216L212.753 369.693V373H210.293ZM228.511 361.364H230.972V368.92C230.972 369.769 230.769 370.511 230.364 371.148C229.962 371.784 229.4 372.28 228.676 372.636C227.953 372.989 227.11 373.165 226.148 373.165C225.182 373.165 224.337 372.989 223.614 372.636C222.89 372.28 222.328 371.784 221.926 371.148C221.525 370.511 221.324 369.769 221.324 368.92V361.364H223.784V368.71C223.784 369.153 223.881 369.547 224.074 369.892C224.271 370.237 224.547 370.508 224.903 370.705C225.259 370.902 225.674 371 226.148 371C226.625 371 227.04 370.902 227.392 370.705C227.748 370.508 228.023 370.237 228.216 369.892C228.413 369.547 228.511 369.153 228.511 368.71V361.364Z" fill="black"/>
<path d="M262.22 67.5294C270.376 49.2975 291.768 41.1298 310 49.2863C301.843 67.5182 280.452 75.6859 262.22 67.5294Z" fill="#FFA800"/>
<path d="M236.595 99.4965C248.237 83.2673 270.831 79.5488 287.06 91.1909C275.418 107.42 252.824 111.139 236.595 99.4965Z" fill="black"/>
<path d="M242.444 26.662C228.741 41.1935 229.413 64.0818 243.944 77.7846C257.647 63.2531 256.975 40.3648 242.444 26.662Z" fill="black"/>
<path d="M289.5 347.857V174.695C289.5 174.311 289.189 174 288.805 174C288.61 174 288.425 174.081 288.293 174.224L261.53 203.219C261.189 203.589 261 204.073 261 204.576V382.025C261 383.969 263.493 384.77 264.625 383.191L289.125 349.023C289.369 348.683 289.5 348.275 289.5 347.857Z" stroke="#FFA800" stroke-width="10" stroke-linejoin="round"/>
</svg>
